<svg xmlns="http://www.w3.org/2000/svg" width="76.747" height="48.225" viewBox="0 0 76.747 48.225"><defs><style>.a{fill:#999;}</style></defs><g transform="translate(-784 -69.887)"><path class="a" d="M75.933.224a.612.612,0,0,0-.3-.192A1.151,1.151,0,0,0,75.339,0H62.045a1.713,1.713,0,0,0-.722.141A.743.743,0,0,0,61.029.4a2.277,2.277,0,0,0-.115.722.748.748,0,0,0,.249.588.907.907,0,0,0,.594.192,3.283,3.283,0,0,0,.345-.038c.153-.026.351-.057.6-.1a6.8,6.8,0,0,1,.939-.128,3.508,3.508,0,0,1,2.5.843l.006.006.006.006a2.587,2.587,0,0,1,.882,2.07,27.425,27.425,0,0,1-2.4,9.876h0L54.7,40.342,44.829,15.153l-.006-.006q-2.386-5.337-3.5-8.509a26.373,26.373,0,0,1-.8-2.619,4.536,4.536,0,0,1-.172-1.437.838.838,0,0,1,.492-.632,3.4,3.4,0,0,1,1.495-.262h1.469l.058-.019a1.039,1.039,0,0,0,.53-.415l.083-.128L44.445.639a.736.736,0,0,0-.339-.5A1.046,1.046,0,0,0,43.538,0H23.556A1.467,1.467,0,0,0,22.2.914L9.278,33.2v.006a59.823,59.823,0,0,1-4.408,9.486l-.006.006-.006.006C3.44,45.363,1.926,46.538.348,46.538H.079a.937.937,0,0,0-.511.128c-.185.121-.268.652-.268.85a.664.664,0,0,0,.236.537.834.834,0,0,0,.543.172c.556,0,1.431-.019,2.606-.051H10.16c1.75.032,2.8.051,3.162.051a1.724,1.724,0,0,0,.773-.141.743.743,0,0,0,.294-.256.707.707,0,0,0,.115-.383c0-.211-.083-.754-.275-.894a.969.969,0,0,0-.569-.153,3.282,3.282,0,0,0-.345.038c-.147.026-.339.057-.581.1-.486.045-.8.064-.958.064A3.846,3.846,0,0,1,9.2,45.874a2.741,2.741,0,0,1-.811-2.191c0-2.459,1.112-5.194,2.574-8.8.1-.236.192-.479.294-.722l1.009-2.523H31.286c.121.281.236.562.358.83h0c1.533,3.59,2.632,6.177,3.386,8.413a31.024,31.024,0,0,1,.882,3.028,5.285,5.285,0,0,1,.179,1.674v.013a.844.844,0,0,1-.4.684,2.345,2.345,0,0,1-1.246.262H32.972l-.057.019a1.039,1.039,0,0,0-.53.415L32.3,47.1l.032.153c.038.2.153.715.339.83a1.046,1.046,0,0,0,.569.141c.639,0,1.846-.019,3.628-.051H45.18c.792.013,1.84.019,2.907.032h5.494a1.161,1.161,0,0,0,.466-.083.628.628,0,0,0,.358-.364l12.24-32.446q.613-1.5,1.163-2.907h0a58.073,58.073,0,0,1,3.041-6.874c1.367-2.651,2.626-3.846,4.248-3.846h.134a.852.852,0,0,0,.473-.128.7.7,0,0,0,.275-.364A1.358,1.358,0,0,0,75.933.224ZM23.2,29.8H12.932L21.346,8.247,30.6,29.8ZM44.9,45.618c-.779-.543-1.578-1.948-2.741-4.184Q40.424,38.023,37,29.961h0L25.14,1.7c1.98.019,5.647.083,5.915.172a4.9,4.9,0,0,1,1.246.69l.006.006.013.006a4.987,4.987,0,0,1,1.405,2.057l.006.006.006.006q.872,1.677,1.878,3.82t2.881,6.5L50.744,46.257C48.9,46.289,45.825,46.27,44.9,45.618Z" transform="translate(784.7 69.887)"/></g></svg>