<svg xmlns="http://www.w3.org/2000/svg" xmlns:xlink="http://www.w3.org/1999/xlink" width="68.626" height="68.626" viewBox="0 0 68.626 68.626">
  <defs>
    <filter id="path-1914" x="0" y="0" width="68.626" height="68.626" filterUnits="userSpaceOnUse">
      <feOffset dy="3" input="SourceAlpha"/>
      <feGaussianBlur stdDeviation="3" result="blur"/>
      <feFlood flood-opacity="0.161"/>
      <feComposite operator="in" in2="blur"/>
      <feComposite in="SourceGraphic"/>
    </filter>
  </defs>
  <g id="Group_583" data-name="Group 583" transform="translate(-3686.499 -10897.5)">
    <g transform="matrix(1, 0, 0, 1, 3686.5, 10897.5)" filter="url(#path-1914)">
      <path id="path-1914-2" data-name="path-1914" d="M183.225,171.512A24.813,24.813,0,1,1,158.412,146.7a24.813,24.813,0,0,1,24.813,24.812" transform="translate(-124.1 -140.2)" fill="#fff" stroke="#1d214f" stroke-width="1"/>
    </g>
    <g id="Group_684" transform="translate(3603.054 10530.05)">
      <path id="Path_1902" d="M118.451,4.3a13.516,13.516,0,0,0-2.292-.193A13.341,13.341,0,0,0,113.9,4.3a.935.935,0,0,1,.34-.825c.525-.454.84-.729,1.3-1.131a2.124,2.124,0,0,1,2.511.883,1.736,1.736,0,0,1,.4,1.077Z" transform="translate(1.605 382.268)" fill="rgba(29,33,75,0.92)"/>
      <path id="Path_1903" d="M125.23,2.731q-.41-.1-.833-.169A1.736,1.736,0,0,0,124,1.49a2.123,2.123,0,0,0-2.51-.884l.345-.3a1.013,1.013,0,0,1,1.1-.221,9.1,9.1,0,0,1,2.212,2.19.651.651,0,0,1,.082.458Z" transform="translate(-4.34 384.005)" fill="#1d214f"/>
      <circle id="Ellipse_82" cx="13.568" cy="13.568" r="13.568" transform="translate(104.197 386.376)" fill="#e8e8e8"/>
      <path id="Path_1908" d="M107.289,19.267a.349.349,0,0,1,0,.067c-.1,2.646-3.319,4.671-7.18,4.532s-6.915-2.414-6.815-5.059a.237.237,0,0,1,0-.067,2.153,2.153,0,0,0-.217.115c-.061,2.735,3.067,5.062,7.006,5.209s7.239-1.936,7.38-4.667a.9.9,0,0,0-.174-.13Z" transform="translate(17.907 369.329)" fill="#ababab" stroke="#e8e8e8" stroke-miterlimit="10" stroke-width="0.3"/>
      <path id="Path_1909" d="M163.07,30.825l-.037-.041c-.039-.041-.074-.082-.115-.124a34.331,34.331,0,0,0-1.893,10.375,32.721,32.721,0,0,0,.79,9.246c.037-.028.069-.059.106-.089l.061-.05a35.2,35.2,0,0,1-.76-9.094,33.84,33.84,0,0,1,1.848-10.223Z" transform="translate(-35.265 359.996)" fill="#ababab" stroke="#e8e8e8" stroke-miterlimit="10" stroke-width="0.3"/>
      <path id="Path_1910" d="M80.192,27.36l-.122.113a.242.242,0,0,0-.041.039A33.822,33.822,0,0,1,81.1,37.839a35.189,35.189,0,0,1-1.441,9.01.463.463,0,0,0,.056.056c.035.037.067.069.1.1a35.271,35.271,0,0,0,1.48-9.16,33.941,33.941,0,0,0-1.1-10.485Z" transform="translate(28.411 362.58)" fill="#ababab" stroke="#e8e8e8" stroke-miterlimit="10" stroke-width="0.3"/>
      <path id="Path_1904" d="M55.581,59.713a13.6,13.6,0,0,0,.246,2.578c-2.471-1.065-2.887-5.386.295-6.38a13.566,13.566,0,0,0-.54,3.8Z" transform="translate(48.616 340.227)" fill="rgba(29,33,75,0.92)"/>
      <path id="Path_1905" d="M53.442,62.2c.05.265.106.527.174.786a15.564,15.564,0,0,1-1.806-.315,1.679,1.679,0,0,1-.949-1.617c-.02-1.491-.028-2.223-.052-3.649a1.39,1.39,0,0,1,.933-1.456l.271-.037A15.458,15.458,0,0,1,53.75,55.8v.024C50.555,56.818,50.972,61.139,53.442,62.2Z" transform="translate(51 340.313)" fill="#1d214f"/>
      <path id="Path_1906" d="M184.83,59.713a13.594,13.594,0,0,1-.246,2.578c2.464-1.065,2.9-5.386-.295-6.38a13.565,13.565,0,0,1,.54,3.8Z" transform="translate(-53.509 340.227)" fill="rgba(29,33,75,0.92)"/>
      <path id="Path_1907" d="M184.538,62.2c-.05.265-.106.527-.174.786a15.558,15.558,0,0,0,1.806-.315,1.679,1.679,0,0,0,.949-1.617c.02-1.491.028-2.223.052-3.649a1.39,1.39,0,0,0-.933-1.456l-.271-.037a15.459,15.459,0,0,0-1.736-.111v.024c3.205.993,2.769,5.314.307,6.375Z" transform="translate(-53.462 340.313)" fill="#1d214f"/>
      <path id="Path_1911" d="M99.792,67.112,94.4,67.08a4.25,4.25,0,1,1,.049-8.48l5.394.033a4.25,4.25,0,1,1-.051,8.479Z" transform="translate(20.41 338.121)" fill="#363435"/>
      <path id="Path_1912" d="M105.068,75.2a1.168,1.168,0,1,0-1.2-1.131A1.168,1.168,0,0,0,105.068,75.2Z" transform="translate(9.458 326.954)" fill="#b4efff" fill-rule="evenodd"/>
      <path id="Path_1913" d="M132.448,75.137a1.168,1.168,0,1,0-1.2-1.131,1.168,1.168,0,0,0,1.2,1.131Z" transform="translate(-11.979 327.001)" fill="#b4efff" fill-rule="evenodd"/>
    </g>
  </g>
</svg>
