<svg xmlns="http://www.w3.org/2000/svg" width="115" height="115" viewBox="0 0 115 115"><defs><style>.a,.b{fill:#fff;}.a{stroke:#707070;opacity:0;}.c,.e{fill:none;}.d,.f{stroke:none;}.f{fill:#fff;}</style></defs><g transform="translate(-94 -0.152)"><circle cx="57.5" cy="57.5" r="57.5" transform="translate(94 0.152)"/><g transform="translate(-2)"><g class="a" transform="translate(130 34.152)"><rect class="d" width="48" height="48"/><rect class="e" x="0.5" y="0.5" width="47" height="47"/></g><g transform="translate(126 25.921)"><path class="b" d="M69.393,67.727c-2.123-2.566-1.608-6.056-1.1-7.94a9.926,9.926,0,0,0,.743-3.737A10.321,10.321,0,0,0,66.8,49.717c-1.368,8.5-9.8,15.085-20.044,15.247a15.066,15.066,0,0,0,8.667,2.654,15.4,15.4,0,0,0,6.62-1.468A15.781,15.781,0,0,0,68.8,68.444C70.418,68.443,69.393,67.727,69.393,67.727Z" transform="translate(-19.307 -18.01)"/><g class="c" transform="translate(0 0)"><path class="d" d="M45.957,29.288c0-8.781-8.472-15.927-18.884-15.927S8.188,20.507,8.188,29.288a13.612,13.612,0,0,0,1.011,5.1c.779,2.87,1.55,8.024-1.413,12.009a22.1,22.1,0,0,0,9.182-3.165l.415-.278.451.213a21.644,21.644,0,0,0,9.238,2.047C37.484,45.216,45.957,38.069,45.957,29.288Z"/><path class="f" d="M 27.07263565063477 15.7609977722168 C 24.80362701416016 15.7609977722168 22.60458564758301 16.13573837280273 20.53658676147461 16.87479782104492 C 18.55955505371094 17.58134841918945 16.7885856628418 18.58782577514648 15.27286529541016 19.86627578735352 C 12.25190734863281 22.41432571411133 10.58819580078125 25.76045608520508 10.58819580078125 29.28827667236328 C 10.58819580078125 30.69843673706055 10.86979675292969 32.11258697509766 11.42517471313477 33.49143981933594 L 11.47806549072266 33.62275695800781 L 11.51515579223633 33.7593879699707 C 12.10701751708984 35.93974685668945 12.36912536621094 38.06100845336914 12.29420471191406 40.06424713134766 C 12.25553512573242 41.09820556640625 12.12694549560547 42.08612060546875 11.90937042236328 43.0252685546875 C 13.12954711914062 42.61238861083984 14.44185256958008 42.03645324707031 15.63431549072266 41.23741912841797 L 16.04963684082031 40.95986938476562 L 17.18033599853516 40.20423889160156 L 18.40961456298828 40.785888671875 L 18.86448669433594 41.00110626220703 C 21.36278533935547 42.18845748901367 24.20112609863281 42.81605529785156 27.07263565063477 42.81605529785156 L 27.07265663146973 42.81605529785156 C 29.34103584289551 42.81605529785156 31.5396671295166 42.44128799438477 33.60748672485352 41.7021484375 C 35.58442687988281 40.99550628662109 37.35541534423828 39.98891830444336 38.87125778198242 38.71035003662109 C 41.89262771606445 36.16189575195312 43.55657577514648 32.81575012207031 43.55657577514648 29.28827667236328 C 43.55657577514648 25.76057815551758 41.89275741577148 22.41445922851562 38.87160491943359 19.86628723144531 C 37.3558464050293 18.58783721923828 35.58489608764648 17.58134841918945 33.60793685913086 16.87478637695312 C 31.54006576538086 16.13572692871094 29.34127616882324 15.7609977722168 27.07263565063477 15.7609977722168 M 27.07263565063477 13.36099624633789 C 37.48425674438477 13.36099624633789 45.95657730102539 20.50713729858398 45.95657730102539 29.28827667236328 C 45.95657730102539 38.06942749023438 37.48425674438477 45.21606826782227 27.07263565063477 45.21605682373047 C 23.84347724914551 45.21605682373047 20.64913558959961 44.50654602050781 17.83428573608398 43.16875839233398 L 17.38314819335938 42.95529937744141 L 16.96782684326172 43.23284912109375 C 13.31376647949219 45.68133544921875 8.792236328125 46.2894287109375 7.785995483398438 46.39741897583008 C 10.74921798706055 42.41180801391602 9.978137969970703 37.25847625732422 9.198974609375 34.38811492919922 C 8.527816772460938 32.72181701660156 8.188198089599609 31.00403785705566 8.188198089599609 29.28827667236328 C 8.188198089599609 20.50713729858398 16.65949630737305 13.36099624633789 27.07263565063477 13.36099624633789 Z"/></g></g></g></g></svg>