<svg xmlns="http://www.w3.org/2000/svg" width="22" height="22" viewBox="0 0 22 22"><defs><style>.a{fill:#f5f5f5;stroke:#999;opacity:0;}.b{fill:#999;}.c{stroke:none;}.d{fill:none;}</style></defs><g transform="translate(-540 -5353)"><g class="a" transform="translate(540 5353)"><rect class="c" width="22" height="22"/><rect class="d" x="0.5" y="0.5" width="21" height="21"/></g><g transform="translate(540 5353.004)"><path class="b" d="M19.418,0H2.578A2.581,2.581,0,0,0,0,2.578V19.418A2.581,2.581,0,0,0,2.578,22H19.418A2.581,2.581,0,0,0,22,19.418V2.578A2.581,2.581,0,0,0,19.418,0Zm.859,19.418a.86.86,0,0,1-.859.859h-4.9v-7h2.655l.439-2.664H14.521V8.764A1.267,1.267,0,0,1,15.81,7.475h1.761V4.812H15.81a3.952,3.952,0,0,0-3.951,3.96v1.84H9.28v2.664h2.579v7H2.578a.86.86,0,0,1-.859-.859V2.578a.86.86,0,0,1,.859-.859H19.418a.86.86,0,0,1,.859.859Z"/></g></g></svg>