<svg xmlns="http://www.w3.org/2000/svg" width="16" height="16" viewBox="0 0 16 16">
  <g id="Filter_By" data-name="Filter By" transform="translate(13492 22374)">
    <g id="Rectangle_132" data-name="Rectangle 132" transform="translate(-13492 -22374)" fill="#fff" stroke="#707070" stroke-width="1" opacity="0">
      <rect width="16" height="16" stroke="none"/>
      <rect x="0.5" y="0.5" width="15" height="15" fill="none"/>
    </g>
    <path id="filter" d="M13.21,0H1.068A.572.572,0,0,0,.559.3.553.553,0,0,0,.6.889L5.053,7l0,.006a1.22,1.22,0,0,1,.25.736v4.984a.547.547,0,0,0,.165.394.575.575,0,0,0,.4.163.6.6,0,0,0,.224-.044l2.5-.93a.529.529,0,0,0,.373-.521V7.745a1.22,1.22,0,0,1,.249-.736l0-.006L13.673.889A.552.552,0,0,0,13.718.3.572.572,0,0,0,13.21,0ZM8.663,6.609a1.889,1.889,0,0,0-.384,1.135V11.71L6,12.559V7.745a1.888,1.888,0,0,0-.384-1.135L1.3.674H12.982Zm0,0" transform="translate(-13491.639 -22372.143)" stroke="#000" stroke-width="0.4"/>
  </g>
</svg>
