<svg xmlns="http://www.w3.org/2000/svg" xmlns:xlink="http://www.w3.org/1999/xlink" width="1470.922" height="768.744" viewBox="0 0 1470.922 768.744">
  <defs>
    <style>
      .cls-1 {
        opacity: 0.86;
        fill: url(#linear-gradient);
      }
    </style>
    <linearGradient id="linear-gradient" x1="0.945" y1="0.054" x2="0.323" y2="1" gradientUnits="objectBoundingBox">
      <stop offset="0" stop-color="#fff"/>
      <stop offset="0.674" stop-color="#fbfbfb" stop-opacity="0.4"/>
      <stop offset="0.866" stop-color="#ebeec8" stop-opacity="0.059"/>
      <stop offset="1" stop-color="#e8ebbf" stop-opacity="0"/>
    </linearGradient>
  </defs>
  <g id="Group_5" data-name="Group 5" transform="translate(-269.877 -323)">
    <path id="Path_9" data-name="Path 9" class="cls-1" d="M114.9-28.729,135.533-3.472l17.313,23.178,28.933,57.421L201.8,140.5-368.362,735.4h-664.761V139.886Z" transform="translate(1303 356.348)"/>
    <g id="Layer_2" data-name="Layer 2" transform="translate(1410.998 323.005)">
      <g id="Layer_1" data-name="Layer 1" transform="translate(0.002 -0.005)">
        <path id="Path_14" data-name="Path 14" d="M219.741,145.853c12.476,7.932,22.7,18.626,34.388,27.391,3.112,2.308,5.317,3.1,8.765.6,5.464-3.93,12.169-4.266,18.845-4.835-.76-2.615-2.922-3.462-4.572-4.733-13.688-10.869-27.464-21.606-41.152-32.475-1.636-1.3-3.886-2.1-4.485-4.5,7.3,3.681,13.148,9.452,19.663,14.346,12.023,9.1,23.826,18.509,35.6,27.946,14.068,11.278,11.964,30.853-4.31,38.3-3.4,1.548-3.4,4-4,6.5-7.085,29.772-11.292,60.1-17.033,90.12-3.652,19.079-7.1,38.2-9.525,57.5-.628,5.011,1.359,6.691,5.7,7.553,6.632,1.3,13.25,2.7,18.889,6.866,3.433,2.527,6.574,5.318,7.509,9.656a137.319,137.319,0,0,1,3.74,28.881c0,6.019-2.5,10.226-8.356,12.315a156.955,156.955,0,0,1-28.092,7.684c-41.035,6.808-82.07,3.8-123.062.307-15.441-1.315-30.444-5.493-45.213-10.343-6.632-2.162-9.656-6.647-9.978-13.235a60.245,60.245,0,0,1,3.4-21.679c1.461-4.631,6.223-7.012,10.343-9.393,12.169-7.041,25.682-9.174,39.443-10.591l4.719-.467c-1.461.409-3.039.877-4.572,1.2-12.841,2.629-25.915,4.616-37.646,10.883-3.433,1.826-9.13,3.345-8.254,8.151.774,4.28,5.946,6.457,10.124,7.3a383.736,383.736,0,0,0,51.261,7.713c15.5,1.213,31.028.482,46.528.935,22.073.628,44.161,1.855,66.162-1.344,7.48-1.081,14.988-2.147,21.8-5.756,7.567-4,8.765-11.541,2.63-17.691a27.127,27.127,0,0,0-12.709-7.494c-4.587-1.154-9.9-4.1-13.615-2.746s-1.958,7.874-2.8,12.081c-.906,4.5-3.068,6.019-7.3,5.727-8.94-.614-17.881-.993-26.821-1.636a29.463,29.463,0,0,1-6.954-1.461c-3.053-1.008-4.748-2.542-2.425-6.121,1.695-2.63,2.4-5.843,3.857-8.692,2.279-4.383.5-5.624-3.8-5.42-12.125.57-24.235,1.2-36.375,1.534-13.148.336-26.047,3.214-39.209,2.922,18.845-4.383,38.1-4.865,57.294-5.683,7.144-.292,14.3-.657,21.445-.643,3.491,0,4.266-2.1,5.025-4.689,11.044-37.719,21.255-75.657,31.437-113.61,3.594-13.411,7.3-26.792,11.278-40.1a7.115,7.115,0,0,0-.643-6.6c-3.1-5.011-4.178-10.518-1.213-15.836,2.074-3.711.833-5.7-2.016-7.947-10.226-8.122-20.452-16.376-30.678-24.63C221.45,148.847,219.551,148.1,219.741,145.853ZM80.128,410.909l-1.9,3.74c-1.081,2.1-1.592,4.207.833,5.741s2.922-1.125,4.076-2.162c1.811-1.622,3.141-3.871,6.063-4.865-.57,2.717-2.776,3.331-3.8,4.923s-3.345,2.732-1.461,4.383c1.578,1.461,4,2.688,6.282.234,1.329-1.461,2.644-3.141,4.689-3.652.6,3.039-4.762,3.477-2.425,6.136,3.725,4.236,5.58-1.841,8.444-2.717.628,2.206-2.922,3.258-.877,4.981a3.842,3.842,0,0,0,4.981-.146c.57-.438,2-1.811,2.235-.219.628,4.383,4.222,2.922,6.428,3.433,17.764,3.769,35.864,4.66,53.92,5.551,36.244,1.811,72.37,1.8,107.591-8.955,7.3-2.235,10.723-6.048,10.883-13.644.088-4.558-.219-9.145-.409-13.7-.1-2.294-.453-4.09-3.521-2.352-16.069,9.159-34.067,11.424-51.933,11.015-37.544-.862-75.219,1.242-112.573-4.193-10.606-1.534-21.474-2.527-31.35-6.778s-9.6-4.806-10.869,6.238a30.591,30.591,0,0,0-.219,4.762c0,1.461-.8,3.491.877,4.383S77.893,410.7,80.128,410.909Zm170.919-162.68c-1.388,3.2-9.715,3.316-3.375,8.926-.365.409-.818,1.227-1.081,1.169-3.74-.8-2.922,2.308-3.477,4.076q-4.032,14.609-7.889,29.348c-7.48,28.618-15.412,57.119-25.316,85.021-2.177,6.106-1.359,7.932,5.274,8.268,8.531.438,17.107.292,25.623.906,5.58.409,7.494-2.22,7.816-7.173,1.695-27.055,7.187-53.555,12.11-80.127,4.777-25.784,7.932-51.875,14.1-77.425,3.316-13.747,2.469-14.608-12.052-11.935-5.244.95-6.413,3.769-6.311,8.765l5.931-3.681c-3.141,4.587-9.057,6.822-8.765,13.44,1.943.847,2.659-2.235,5.113-1.286-3.638,3.185-8.853,5.6-8.429,10.693a11.935,11.935,0,0,1-2.133,7.523C246.547,247.615,246.241,249.865,251.047,248.229Zm42.89-60.567c0-12.286-5.478-17.077-17.53-15.529a36.755,36.755,0,0,0-11.541,2.776,15.6,15.6,0,0,0-7.742,19.692c3.462,8.414,13.776,13.571,23.213,11.687C288.459,204.55,293.966,197.07,293.937,187.662Z" transform="translate(33.655 58.674)"/>
        <path id="Path_15" data-name="Path 15" d="M265.508,186.173c-7.041-3.389-12.476-8.984-18.538-13.7-23.2-18.1-46.1-36.521-70.121-53.555-1.1-.774-2.279-1.461-5.1-3.185,2.6,6.705,1.461,11.059-3.331,14.419-2.264,1.622.234,2.644,1.271,3.477,15.193,12.213,30.356,24.44,45.637,36.521,13.279,10.5,25.419,22.234,37.661,33.877-2.1.336-3.287-1.212-4.543-2.4-25.579-23.973-53.394-45.286-80.756-67.082-1.958-1.549-3.316-1.724-5.2-.6-8.575,5.142-19.342-1.461-21.5-10.124-.935-3.667-2.922-4.5-6.15-5a46.747,46.747,0,0,1-10.883-2.922c-3.433-1.461-4.09-.307-4.28,2.922-.745,12.417-4.12,24.221-8.517,35.82-3.579,9.466-10.226,16.566-17.443,23.081-3.389,3.053-7.874,1.811-11.395-1.125a65.2,65.2,0,0,1-9.1-10.226c-10.635-13.484-21.328-26.821-29.392-41.941a7.144,7.144,0,0,0-3.74-3.579c-17.705-7.2-25.682-28.311-22.658-45.608a11.409,11.409,0,0,0-.8-7.421C8.837,51.585,4.046,34.405.7,16.758-1.1,7.307.145,4.721,9.524,2.121A54.957,54.957,0,0,1,40.2,2.238C56.446,7.175,71.683,14.611,82.654,28.4c2.294,2.922,4.894,3.886,8.327,2.556,5.361-2.074,10.723-4.193,16.069-6.3,7.509-2.922,15.076-5.128,23.14-2.264-5.317.467-10.708.424-15.909,1.943-8.02,2.337-15.266,6.764-23.476,8.6-3.17.7-1.782,2.469-.57,3.827,10.226,11.482,15.865,25.594,21.913,39.443,3.681,8.517,3.36,8.517,12.33,5.2,9.189-3.433,17.954-7.3,24.732-14.871,4.543-5.113,6.34-10.416,4.12-16.917-4.178-12.183-10.051-22.95-23.374-27.376,8.867,0,14.156,5.712,18.392,12.388A93.348,93.348,0,0,1,155.01,48.59c3.331,7.976,1.154,14.857-4.982,20.452-3.93,3.623-7.816,7.406-12.914,9.452-3.287,1.329-4.1,3.638-2.688,6.676,2.6,5.405,5.376,10.737,9.9,14.842,2.922,2.673,6.092,4.193,10.226,3.316a12.067,12.067,0,0,1,12.432,4.076c6.793,9.043,16.8,13.893,25.4,20.452,23.841,18.261,47.536,36.7,70.851,55.629C264.223,184.244,265.333,184.829,265.508,186.173ZM6.237,4.385c44.6,49.45,71.435,106.642,87.446,170.043,17-15.792,22.629-35.82,23.461-56.973.891-22.336-6.6-43.022-17.53-62.393C88.4,35.063,74.006,18.321,52.59,8.4,37.674,1.463,22.379,2.018,6.237,4.385ZM18.873,81.2c-.38,11.468,2.761,20.057,9.919,28.823a29.626,29.626,0,0,0,39.121,6.53c2.732-1.651,3.418-3.17,2.118-6.223-4.222-9.875-8.9-19.517-13.454-29.217S45.11,64.835,36.52,59.181c-2.776-1.826-4.383-1.461-6.72.219A25.755,25.755,0,0,0,18.873,81.182Zm25.9,41.284c2.922,4.967,4.792,8.414,6.983,11.687,9.5,13.936,19.3,27.639,30.882,39.954,1.622,1.738,3.448,4,5.96,2.834,2.761-1.271,1.607-4.383,1.183-6.442-1.286-6.4-2.922-12.724-4.719-18.991a198.674,198.674,0,0,0-10.752-30.838c-.7-1.461-.92-4.558-3.944-2.79C62.9,122.173,55.132,125.2,44.774,122.48ZM19.4,67.333a51.845,51.845,0,0,1,12.519-12.87c2.367-1.607,6.983-.394,7.173-3.477.131-2.4-2.922-4.981-4.572-7.45-2.235-3.3-4.383-6.691-6.822-9.8Q18.231,21.915,8.414,10.228C7.2,8.768,5.39,7.015,3.315,8.008,1.489,8.9,1.854,11.193,2.19,12.916,5.214,31.6,9.524,49.876,19.4,67.333ZM146.96,104.395a38.522,38.522,0,0,1-12.11-14.141c-3.959-7.816-5.391-7.962-11.906-2.1a24.3,24.3,0,0,0-2.542,2.513c-1.315,1.563-4.5,3.185-2.527,5.2,2.279,2.337,2.79-2.06,4.645-2.483a2.863,2.863,0,0,1,.92.394c-.687,3.068-4.7,4.178-4.777,7.538,1.768,1.461,3.112-2.162,5.113.424-5.2,1.563-1.592,6.369-3.652,9.291-.117.175.424,1.008.833,1.329,5.624,4.572,11.5,4.675,17.53-.073A109.967,109.967,0,0,0,146.96,104.395Zm8.239,29.129c7.728,0,15.763-6.325,15.836-12.461.117-8.765-6.15-16.069-13.966-16.215a14.462,14.462,0,0,0-15,14.419C142.125,126.848,148.275,133.524,155.2,133.524Z" transform="translate(-0.002 0.005)"/>
        <path id="Path_16" data-name="Path 16" d="M214.926,179.005c-4.631-.146-8.663-3.988-8.078-7.772.76-5,4.908-5.843,9-5.843s7.07,2.323,6.749,6.6C222.245,176.682,218.622,178.479,214.926,179.005Zm-.365-2.264c2.922-.584,5.843-1.461,5.843-5.244a4.12,4.12,0,0,0-4.733-4.163c-2.8.278-6.311.5-6.15,4.675C209.58,174.944,211.479,176.507,214.561,176.741Z" transform="translate(95.297 76.227)"/>
        <path id="Path_17" data-name="Path 17" d="M17.17,5.42c5.464,2.922,7.48,8.546,10.226,13.6C23.379,15.032,20.749,9.876,17.17,5.42Z" transform="translate(7.91 2.506)"/>
        <path id="Path_18" data-name="Path 18" d="M10.2,5.73c5.639,1.461,8.561,5.683,11.073,10.226Z" transform="translate(4.698 2.648)"/>
        <path id="Path_19" data-name="Path 19" d="M24.55,5.67c3.974,3.214,7.859,6.5,8.97,13.615C29.765,13.924,27.369,9.614,24.55,5.67Z" transform="translate(11.311 2.621)"/>
        <path id="Path_20" data-name="Path 20" d="M78.34,21.108C83.6,20.071,87,23.65,90.8,26.323,86.36,25.417,82.81,22.1,78.34,21.108Z" transform="translate(36.1 9.651)"/>
        <path id="Path_21" data-name="Path 21" d="M30.44,77.055c5.639,1.008,11.219,2.513,16.785-.555C43.266,81.613,38.562,81.759,30.44,77.055Z" transform="translate(14.026 35.263)"/>
        <path id="Path_22" data-name="Path 22" d="M49.83,107.18,60.7,119.29C55.031,117.26,52.474,112.235,49.83,107.18Z" transform="translate(22.961 49.401)"/>
        <path id="Path_23" data-name="Path 23" d="M103.063,83.789c.7-3.009,1.548-6.778,5.931-6.3,3.886.409,7.392,2.542,7.027,7.3-.292,3.754-2.454,6.282-6.705,5.843C105.6,90.086,102.887,88.479,103.063,83.789Zm7.085,4.514a3.74,3.74,0,0,0,3.623-4.207c-.131-2.922-2.162-4.032-4.762-4.193-3.024-.19-3.477,2.06-3.564,4.383C105.327,87.149,107.241,88.2,110.148,88.3Z" transform="translate(47.49 35.701)"/>
      </g>
    </g>
  </g>
</svg>
