<svg xmlns="http://www.w3.org/2000/svg" xmlns:xlink="http://www.w3.org/1999/xlink" width="72" height="72" viewBox="0 0 72 72"><defs><style>.a,.c{fill:#fff;}.b{stroke:#4c3918;}.c{opacity:0;}.d{clip-path:url(#a);}.e{clip-path:url(#b);}.f{clip-path:url(#c);}.g{stroke:none;}.h{fill:none;}</style><clipPath id="a"><path class="a" d="M31.458-502.858a11.361,11.361,0,0,0-.723-3.772,7.588,7.588,0,0,0-1.8-2.758,7.652,7.652,0,0,0-2.752-1.792,11.391,11.391,0,0,0-3.772-.723c-1.664-.079-2.193-.1-6.414-.1s-4.75.018-6.408.091a11.362,11.362,0,0,0-3.772.723,7.585,7.585,0,0,0-2.758,1.8,7.656,7.656,0,0,0-1.792,2.752,11.392,11.392,0,0,0-.723,3.772c-.079,1.664-.1,2.193-.1,6.414s.018,4.75.091,6.408a11.361,11.361,0,0,0,.723,3.772,7.667,7.667,0,0,0,1.8,2.758,7.652,7.652,0,0,0,2.752,1.792A11.391,11.391,0,0,0,9.585-481c1.658.073,2.187.091,6.408.091s4.75-.018,6.408-.091a11.357,11.357,0,0,0,3.772-.723,7.953,7.953,0,0,0,4.55-4.549,11.4,11.4,0,0,0,.723-3.772c.073-1.658.091-2.187.091-6.408S31.53-501.2,31.458-502.858Zm-2.8,12.695a8.522,8.522,0,0,1-.535,2.885,5.158,5.158,0,0,1-2.952,2.952,8.554,8.554,0,0,1-2.885.534c-1.64.073-2.132.091-6.281.091s-4.647-.018-6.281-.091a8.519,8.519,0,0,1-2.885-.534,4.786,4.786,0,0,1-1.786-1.16,4.835,4.835,0,0,1-1.16-1.786,8.554,8.554,0,0,1-.534-2.885c-.073-1.64-.091-2.132-.091-6.281s.018-4.647.091-6.28a8.517,8.517,0,0,1,.534-2.885A4.726,4.726,0,0,1,5.06-507.39a4.828,4.828,0,0,1,1.786-1.16,8.558,8.558,0,0,1,2.885-.535c1.64-.073,2.132-.091,6.281-.091s4.647.018,6.281.091a8.522,8.522,0,0,1,2.885.535,4.782,4.782,0,0,1,1.786,1.16,4.833,4.833,0,0,1,1.16,1.786,8.556,8.556,0,0,1,.535,2.885c.073,1.64.091,2.132.091,6.28S28.73-491.8,28.658-490.164Z" transform="translate(-0.449 512)"/></clipPath><clipPath id="b"><path class="a" d="M132.937-387.5a7.989,7.989,0,0,0-7.987,7.987,7.989,7.989,0,0,0,7.987,7.987,7.989,7.989,0,0,0,7.987-7.987A7.989,7.989,0,0,0,132.937-387.5Zm0,13.169a5.182,5.182,0,0,1-5.181-5.181,5.182,5.182,0,0,1,5.181-5.181,5.182,5.182,0,0,1,5.181,5.181,5.182,5.182,0,0,1-5.181,5.181Z" transform="translate(-124.949 387.5)"/></clipPath><clipPath id="c"><path class="a" d="M366.179-421.534a1.865,1.865,0,0,1-1.865,1.865,1.865,1.865,0,0,1-1.865-1.865,1.865,1.865,0,0,1,1.865-1.865,1.865,1.865,0,0,1,1.865,1.865Z" transform="translate(-362.449 423.398)"/></clipPath></defs><g class="b"><rect class="g" width="72" height="72"/><rect class="h" x="0.5" y="0.5" width="71" height="71"/></g><g transform="translate(0.168 -0.057)"><rect class="c" width="32" height="32" transform="translate(19.832 20.057)"/><g transform="translate(-799.168 -6120.943)"><g transform="translate(819 6141.26)"><g class="d" transform="translate(0 0)"><path class="a" d="M-4.551-517H27.144v31.7H-4.551Z" transform="translate(4.247 516.696)"/></g><g class="e" transform="translate(7.562 7.562)"><path class="a" d="M119.949-392.5h16.582v16.582H119.949Z" transform="translate(-120.253 392.196)"/></g><g class="f" transform="translate(21.988 5.382)"><path class="a" d="M357.449-428.4h4.337v4.337h-4.337Z" transform="translate(-357.753 428.095)"/></g></g></g></g></svg>