<svg xmlns="http://www.w3.org/2000/svg" xmlns:xlink="http://www.w3.org/1999/xlink" width="22" height="22" viewBox="0 0 22 22"><defs><style>.a{fill:#999;}.b{fill:#fff;stroke:#707070;opacity:0;}.c{clip-path:url(#a);}.d{clip-path:url(#b);}.e{clip-path:url(#c);}.f{stroke:none;}.g{fill:none;}</style><clipPath id="a"><path class="a" d="M21.767-505.715a7.811,7.811,0,0,0-.5-2.593,5.216,5.216,0,0,0-1.236-1.9,5.261,5.261,0,0,0-1.892-1.232,7.831,7.831,0,0,0-2.593-.5c-1.144-.054-1.508-.067-4.41-.067s-3.266.013-4.406.063a7.812,7.812,0,0,0-2.593.5,5.215,5.215,0,0,0-1.9,1.236,5.263,5.263,0,0,0-1.232,1.892,7.832,7.832,0,0,0-.5,2.593c-.054,1.144-.067,1.508-.067,4.41s.013,3.266.063,4.406a7.811,7.811,0,0,0,.5,2.593,5.272,5.272,0,0,0,1.236,1.9,5.261,5.261,0,0,0,1.892,1.232,7.831,7.831,0,0,0,2.593.5c1.14.05,1.5.063,4.406.063s3.266-.012,4.406-.063a7.808,7.808,0,0,0,2.593-.5,5.468,5.468,0,0,0,3.128-3.128,7.838,7.838,0,0,0,.5-2.593c.05-1.14.063-1.5.063-4.406S21.818-504.575,21.767-505.715Zm-1.925,8.728A5.859,5.859,0,0,1,19.475-495a3.546,3.546,0,0,1-2.03,2.03,5.879,5.879,0,0,1-1.984.367c-1.128.05-1.466.063-4.318.063s-3.195-.012-4.318-.063a5.856,5.856,0,0,1-1.984-.367,3.29,3.29,0,0,1-1.228-.8,3.324,3.324,0,0,1-.8-1.228,5.881,5.881,0,0,1-.367-1.984c-.05-1.128-.063-1.466-.063-4.318s.012-3.195.063-4.318a5.856,5.856,0,0,1,.367-1.984,3.249,3.249,0,0,1,.8-1.228,3.318,3.318,0,0,1,1.228-.8A5.884,5.884,0,0,1,6.83-510c1.128-.05,1.466-.063,4.318-.063s3.195.013,4.318.063a5.859,5.859,0,0,1,1.984.368,3.287,3.287,0,0,1,1.228.8,3.323,3.323,0,0,1,.8,1.228,5.883,5.883,0,0,1,.368,1.984c.05,1.127.063,1.466.063,4.318S19.892-498.115,19.842-496.987Z" transform="translate(-0.449 512)"/></clipPath><clipPath id="b"><path class="a" d="M130.441-387.5a5.493,5.493,0,0,0-5.491,5.491,5.493,5.493,0,0,0,5.491,5.491,5.493,5.493,0,0,0,5.491-5.491A5.493,5.493,0,0,0,130.441-387.5Zm0,9.053a3.563,3.563,0,0,1-3.562-3.562,3.563,3.563,0,0,1,3.562-3.562A3.563,3.563,0,0,1,134-382.009a3.563,3.563,0,0,1-3.562,3.562Z" transform="translate(-124.949 387.5)"/></clipPath><clipPath id="c"><path class="a" d="M365.013-422.116a1.282,1.282,0,0,1-1.282,1.282,1.282,1.282,0,0,1-1.282-1.282,1.282,1.282,0,0,1,1.282-1.282,1.282,1.282,0,0,1,1.282,1.282Z" transform="translate(-362.449 423.398)"/></clipPath></defs><g transform="translate(-819 -6141)"><g class="b" transform="translate(819 6141)"><rect class="f" width="22" height="22"/><rect class="g" x="0.5" y="0.5" width="21" height="21"/></g><g transform="translate(819 6141.179)"><g class="c" transform="translate(0 0)"><path class="a" d="M-4.551-517h21.79v21.794H-4.551Z" transform="translate(4.342 516.791)"/></g><g class="d" transform="translate(5.199 5.199)"><path class="a" d="M119.949-392.5h11.4v11.4h-11.4Z" transform="translate(-120.158 392.291)"/></g><g class="e" transform="translate(15.117 3.7)"><path class="a" d="M357.449-428.4h2.982v2.982h-2.982Z" transform="translate(-357.658 428.19)"/></g></g></g></svg>