<svg xmlns="http://www.w3.org/2000/svg" xmlns:xlink="http://www.w3.org/1999/xlink" width="72" height="72" viewBox="0 0 72 72"><defs><style>.a,.c{fill:#fff;}.b{stroke:#4c3918;}.c{opacity:0;}.d{clip-path:url(#a);}.e{stroke:none;}.f{fill:none;}</style><clipPath id="a"><path class="a" d="M13.765-512C5-512,.333-506.38.333-500.253c0,2.841,1.588,6.385,4.13,7.509.725.327.629-.072,1.253-2.458a.566.566,0,0,0-.136-.556c-3.634-4.2-.709-12.844,7.666-12.844,12.122,0,9.857,16.773,2.109,16.773a2.861,2.861,0,0,1-3.014-3.507c.571-2.31,1.688-4.794,1.688-6.459,0-4.2-6.252-3.574-6.252,1.986a6.726,6.726,0,0,0,.608,2.878S6.373-488.8,6-487.286c-.632,2.57.085,6.731.148,7.089a.211.211,0,0,0,.384.1,25.138,25.138,0,0,0,3.311-6.236c.248-.913,1.265-4.619,1.265-4.619a5.527,5.527,0,0,0,4.663,2.224c6.127,0,10.555-5.386,10.555-12.068C26.305-507.206,20.823-512,13.765-512Z" transform="translate(-0.333 512)"/></clipPath></defs><g class="b"><rect class="e" width="72" height="72"/><rect class="f" x="0.5" y="0.5" width="71" height="71"/></g><g transform="translate(0.168 -0.057)"><rect class="c" width="32" height="32" transform="translate(19.832 20.057)"/><g transform="translate(23.491 532.057)"><g class="d" transform="translate(0.333 -512)"><path class="a" d="M-4.667-517H21.952v32.618H-4.667Z" transform="translate(4.354 516.688)"/></g></g></g></svg>