<svg xmlns="http://www.w3.org/2000/svg" width="115" height="115" viewBox="0 0 115 115"><defs><style>.a,.b{fill:#fff;}.a{stroke:#707070;opacity:0;}.c{stroke:none;}.d{fill:none;}</style></defs><circle cx="57.5" cy="57.5" r="57.5"/><g transform="translate(-96 -0.152)"><g class="a" transform="translate(130 34.152)"><rect class="c" width="48" height="48"/><rect class="d" x="0.5" y="0.5" width="47" height="47"/></g><g transform="translate(126.751 32.65)"><path class="b" d="M50.1,25.34,43.914,11.46A1.857,1.857,0,1,0,41.5,9.014l-11.05,1.948A3.574,3.574,0,0,0,23.7,12.153L12.647,14.1a1.856,1.856,0,1,0-2.062,2.984L4.4,30.967H3.25c0,4.062,3.6,7.354,8.042,7.354s8.041-3.294,8.041-7.354H18.187L12,17.087a1.851,1.851,0,0,0,1-.987l11.05-1.946a3.583,3.583,0,0,0,2.169,1.825V39.643H18.575a3.462,3.462,0,0,0-3.461,3.46v.249h24.91V43.1a3.46,3.46,0,0,0-3.46-3.46H28.923V15.717A3.579,3.579,0,0,0,30.8,12.963l11.052-1.948a1.871,1.871,0,0,0,.648.446l-6.187,13.88H35.166c0,4.062,3.6,7.354,8.041,7.354s8.042-3.294,8.042-7.354H50.1ZM5.876,30.967,11.292,18.82l5.416,12.147ZM37.789,25.34l5.416-12.147L48.622,25.34Z" transform="translate(0 0)"/></g></g></svg>